<?xml version="1.0" encoding="UTF-8" standalone="no"?>
<!-- Generator: Adobe Illustrator 14.0.0, SVG Export Plug-In . SVG Version: 6.00 Build 43363)  -->

<svg
   xmlns:dc="http://purl.org/dc/elements/1.1/"
   xmlns:cc="http://creativecommons.org/ns#"
   xmlns:rdf="http://www.w3.org/1999/02/22-rdf-syntax-ns#"
   xmlns:svg="http://www.w3.org/2000/svg"
   xmlns="http://www.w3.org/2000/svg"
   xmlns:sodipodi="http://sodipodi.sourceforge.net/DTD/sodipodi-0.dtd"
   xmlns:inkscape="http://www.inkscape.org/namespaces/inkscape"
   version="1.1"
   id="Layer_1"
   x="0px"
   y="0px"
   width="135.063px"
   height="102.95px"
   viewBox="0 0 135.063 102.95"
   enable-background="new 0 0 135.063 102.95"
   xml:space="preserve"
   inkscape:version="0.48.3.1 r9886"
   sodipodi:docname="icon.svg"><metadata
   id="metadata48"><rdf:RDF><cc:Work
       rdf:about=""><dc:format>image/svg+xml</dc:format><dc:type
         rdf:resource="http://purl.org/dc/dcmitype/StillImage" /></cc:Work></rdf:RDF></metadata><defs
   id="defs46" /><sodipodi:namedview
   pagecolor="#ffffff"
   bordercolor="#666666"
   borderopacity="1"
   objecttolerance="10"
   gridtolerance="10"
   guidetolerance="10"
   inkscape:pageopacity="0"
   inkscape:pageshadow="2"
   inkscape:window-width="1807"
   inkscape:window-height="1053"
   id="namedview44"
   showgrid="false"
   inkscape:zoom="2.292375"
   inkscape:cx="67.531502"
   inkscape:cy="51.474998"
   inkscape:window-x="0"
   inkscape:window-y="0"
   inkscape:window-maximized="1"
   inkscape:current-layer="Layer_1" />
<g
   id="XMLID_7_">
	<g
   id="g4">
		<path
   fill="none"
   stroke="#FF0000"
   stroke-width="5"
   d="M80.635,71.545c0-15.887-17.038-28.767-38.072-28.767    c-21.019,0-38.057,12.88-38.057,28.767c0,15.885,17.039,28.765,38.057,28.765C63.597,100.31,80.635,87.43,80.635,71.545z"
   id="path6" />
	</g>
</g>
<path
   fill="none"
   stroke="#000000"
   stroke-width="2"
   stroke-linecap="round"
   stroke-linejoin="round"
   d="M42.569,102.079  c-22.029,0-39.951-13.695-39.951-30.531S20.54,41.014,42.569,41.014c22.039,0,39.969,13.697,39.969,30.533  S64.608,102.079,42.569,102.079L42.569,102.079z"
   id="path8" />

<g
   id="g12">
	<g
   id="XMLID_6_">
		<g
   id="g15">
			
				<linearGradient
   id="SVGID_1_"
   gradientUnits="userSpaceOnUse"
   x1="362.531"
   y1="-205.8799"
   x2="473.9804"
   y2="-127.8421"
   gradientTransform="matrix(1 0 0 -1 -345.9004 -134.6494)">
				<stop
   offset="0"
   style="stop-color:#FF0000"
   id="stop18" />
				<stop
   offset="0.0115"
   style="stop-color:#F90000"
   id="stop20" />
				<stop
   offset="0.1296"
   style="stop-color:#BF0000"
   id="stop22" />
				<stop
   offset="0.2509"
   style="stop-color:#8C0000"
   id="stop24" />
				<stop
   offset="0.3726"
   style="stop-color:#610000"
   id="stop26" />
				<stop
   offset="0.4949"
   style="stop-color:#3E0000"
   id="stop28" />
				<stop
   offset="0.6181"
   style="stop-color:#230000"
   id="stop30" />
				<stop
   offset="0.7425"
   style="stop-color:#0F0000"
   id="stop32" />
				<stop
   offset="0.8688"
   style="stop-color:#040000"
   id="stop34" />
				<stop
   offset="1"
   style="stop-color:#000000"
   id="stop36" />
			</linearGradient>
			<path
   fill="url(#SVGID_1_)"
   d="M133.641,1.136c4.409,9.27-81.09,42.02-95.221,93.68c-11.83-11.851-29.069-28.19-37.17-51.66     h11.971c2.119,12.71,14.079,22.511,21.659,32.15c5.921-11.15,14.921-20.15,24.921-29.15     C83.801,28.156,107.801,13.156,133.641,1.136z"
   id="path38" />
		</g>
		<g
   id="g40">
			<path
   fill="none"
   stroke="#000000"
   stroke-width="2"
   stroke-linecap="round"
   stroke-linejoin="round"
   d="M133.641,1.136     c4.409,9.27-81.09,42.02-95.221,93.68c-11.83-11.851-29.069-28.19-37.17-51.66h11.971c2.119,12.71,14.079,22.511,21.659,32.15     c5.921-11.15,14.921-20.15,24.921-29.15C83.801,28.156,107.801,13.156,133.641,1.136z"
   id="path42" />
		</g>
	</g>
</g>
</svg>