<?xml version="1.0" encoding="UTF-8" standalone="no"?>
<!-- Created with Inkscape (http://www.inkscape.org/) -->
<svg
   xmlns:dc="http://purl.org/dc/elements/1.1/"
   xmlns:cc="http://creativecommons.org/ns#"
   xmlns:rdf="http://www.w3.org/1999/02/22-rdf-syntax-ns#"
   xmlns:svg="http://www.w3.org/2000/svg"
   xmlns="http://www.w3.org/2000/svg"
   xmlns:xlink="http://www.w3.org/1999/xlink"
   xmlns:sodipodi="http://sodipodi.sourceforge.net/DTD/sodipodi-0.dtd"
   xmlns:inkscape="http://www.inkscape.org/namespaces/inkscape"
   width="744.09448819"
   height="1052.3622047"
   id="svg2"
   sodipodi:version="0.32"
   inkscape:version="0.46"
   sodipodi:docname="icon.svg"
   inkscape:output_extension="org.inkscape.output.svg.inkscape">
  <defs
     id="defs4">
    <linearGradient
       id="linearGradient3197">
      <stop
         style="stop-color:#323232;stop-opacity:0.57480317;"
         offset="0"
         id="stop3199" />
      <stop
         id="stop3205"
         offset="1"
         style="stop-color:#323232;stop-opacity:0.07874016;" />
      <stop
         style="stop-color:#ffffff;stop-opacity:0;"
         offset="1"
         id="stop3201" />
    </linearGradient>
    <inkscape:perspective
       sodipodi:type="inkscape:persp3d"
       inkscape:vp_x="0 : 526.18109 : 1"
       inkscape:vp_y="0 : 1000 : 0"
       inkscape:vp_z="744.09448 : 526.18109 : 1"
       inkscape:persp3d-origin="372.04724 : 350.78739 : 1"
       id="perspective10" />
    <radialGradient
       inkscape:collect="always"
       xlink:href="#linearGradient3197"
       id="radialGradient3203"
       cx="384.28572"
       cy="393.79076"
       fx="384.28572"
       fy="393.79076"
       r="336.91429"
       gradientUnits="userSpaceOnUse" />
  </defs>
  <sodipodi:namedview
     id="base"
     pagecolor="#ffffff"
     bordercolor="#666666"
     borderopacity="1.0"
     gridtolerance="10000"
     guidetolerance="10"
     objecttolerance="10"
     inkscape:pageopacity="0.0"
     inkscape:pageshadow="2"
     inkscape:zoom="0.34589844"
     inkscape:cx="369.75247"
     inkscape:cy="661.81463"
     inkscape:document-units="px"
     inkscape:current-layer="layer1"
     showgrid="false"
     inkscape:window-width="1014"
     inkscape:window-height="709"
     inkscape:window-x="0"
     inkscape:window-y="0" />
  <metadata
     id="metadata7">
    <rdf:RDF>
      <cc:Work
         rdf:about="">
        <dc:format>image/svg+xml</dc:format>
        <dc:type
           rdf:resource="http://purl.org/dc/dcmitype/StillImage" />
      </cc:Work>
    </rdf:RDF>
  </metadata>
  <g
     inkscape:label="Layer 1"
     inkscape:groupmode="layer"
     id="layer1">
    <rect
       style="opacity:1;fill:url(#radialGradient3203);fill-opacity:1;stroke:none;stroke-width:2.40000010000000019;stroke-linejoin:miter;stroke-miterlimit:0;stroke-dasharray:none;stroke-dashoffset:0;stroke-opacity:1"
       id="rect2412"
       width="671.42859"
       height="671.42859"
       x="48.57143"
       y="58.076469" />
    <path
       style="font-size:181.60662842px;font-style:normal;font-weight:normal;fill:#000000;fill-opacity:1;stroke:none;stroke-width:1px;stroke-linecap:butt;stroke-linejoin:miter;stroke-opacity:1;font-family:Bitstream Vera Sans"
       d="M 106.63894,240.51867 L 105.44871,246.8269 L 61.8862,246.8269 L 63.076431,240.51867 L 76.407032,237.30504 L 157.5809,85.907462 L 180.31433,85.907462 L 210.07015,237.30504 L 224.94806,240.51867 L 223.6388,246.8269 L 167.10276,246.8269 L 168.41201,240.51867 L 185.43233,237.30504 L 177.81485,191.24304 L 114.97057,191.24304 L 90.570802,237.30504 L 106.63894,240.51867 M 161.27062,103.04682 L 120.32662,180.53095 L 175.91047,180.53095 L 161.27062,103.04682 M 300.28978,157.08337 C 308.38327,157.08345 315.1676,156.40899 320.64275,155.05997 C 326.11772,153.71113 330.52159,151.64807 333.85434,148.87076 C 337.18688,146.01431 339.52766,142.40394 340.87671,138.03965 C 342.30487,133.59622 343.019,128.31954 343.01913,122.20956 C 343.019,113.95741 340.44017,107.84755 335.28262,103.87997 C 330.12483,99.912673 321.63452,97.928964 309.81165,97.928816 L 291.00597,97.928816 L 280.53192,157.08337 L 300.28978,157.08337 M 297.43322,236.82895 C 306.08217,236.82896 313.26323,235.95612 318.97643,234.21044 C 324.68945,232.38542 329.21232,229.80659 332.54508,226.47393 C 335.95697,223.1413 338.33743,219.13419 339.68648,214.45258 C 341.0353,209.69168 341.70976,204.37532 341.70988,198.50346 C 341.70976,187.71208 338.17874,179.89623 331.1168,175.05588 C 324.134,170.21567 314.01704,167.79553 300.76588,167.79547 L 278.62755,167.79547 L 266.72523,236.11481 C 270.77196,236.27352 274.69973,236.39255 278.50852,236.47189 C 281.76176,236.63059 285.13409,236.74961 288.62551,236.82895 C 292.11678,236.82896 295.05269,236.82896 297.43322,236.82895 M 226.49536,246.8269 L 227.68559,240.51867 L 243.51569,237.30504 L 268.39155,96.619555 L 248.39564,93.524955 L 249.58587,87.216723 L 315.16769,87.216723 C 324.92749,87.216871 333.14009,88.050039 339.8055,89.716202 C 346.55003,91.303333 351.98542,93.604455 356.11168,96.619555 C 360.23769,99.555611 363.21327,103.08663 365.03843,107.21262 C 366.86332,111.33891 367.77582,115.86178 367.77596,120.78128 C 367.77582,126.81191 366.78396,132.20762 364.80039,136.96844 C 362.81653,141.65013 360.07899,145.73659 356.58777,149.22784 C 353.0963,152.63993 348.89082,155.41713 343.97131,157.55947 C 339.05157,159.70196 333.69553,161.16992 327.90317,161.96333 C 333.37814,162.4395 338.45645,163.5107 343.13816,165.17695 C 347.89896,166.84335 351.98542,169.14447 355.39754,172.0803 C 358.88876,175.01627 361.6263,178.62664 363.61016,182.91142 C 365.59373,187.19631 366.58559,192.23495 366.58573,198.02736 C 366.58559,215.0874 360.79313,227.6245 349.20834,235.63872 C 337.70265,243.57361 320.44429,247.54104 297.43322,247.54104 C 292.98962,247.54104 288.78413,247.50137 284.81675,247.42203 C 280.92861,247.34267 277.15954,247.26332 273.50955,247.18398 C 269.85945,247.10463 266.24908,247.02527 262.67843,246.94593 C 259.18705,246.86658 255.57668,246.8269 251.84732,246.8269 L 226.49536,246.8269 M 456.44829,249.08835 C 445.10134,249.08835 435.10339,247.54104 426.45444,244.44644 C 417.80537,241.35184 410.54495,236.98766 404.67318,231.35389 C 398.80133,225.72013 394.35781,218.93582 391.34257,211.0009 C 388.3273,203.06606 386.81967,194.25835 386.81968,184.57774 C 386.81967,169.10479 389.27948,155.21876 394.19913,142.9196 C 399.11873,130.62065 405.94272,120.22595 414.67113,111.73551 C 423.4788,103.24532 433.95283,96.738733 446.09327,92.215694 C 458.23356,87.692963 471.52447,85.431531 485.96606,85.43137 C 496.83672,85.431531 506.4776,86.066316 514.88871,87.33574 C 523.29954,88.526132 531.03604,89.914732 538.09824,91.501555 L 532.7422,126.37537 L 525.00569,126.37537 L 525.00569,105.66532 C 520.08591,102.25347 514.13476,99.634964 507.1522,97.809786 C 500.16937,95.905564 492.86929,94.95338 485.25192,94.953232 C 474.46038,94.95338 464.5021,97.135472 455.37709,101.49951 C 446.2519,105.78449 438.35669,111.93401 431.69145,119.94811 C 425.10545,127.96246 419.94778,137.64302 416.21844,148.98979 C 412.489,160.33676 410.6243,172.99289 410.62434,186.95821 C 410.6243,194.4964 411.49714,201.47909 413.24285,207.9063 C 415.06783,214.33359 417.92438,219.888 421.81253,224.56955 C 425.70057,229.17181 430.65986,232.78218 436.69042,235.40067 C 442.72088,238.01919 449.98128,239.32844 458.47169,239.32844 C 463.39122,239.32844 468.19182,238.9317 472.8735,238.13821 C 477.55498,237.34473 481.91916,236.27352 485.96606,234.92458 C 490.09208,233.57566 493.86115,232.06804 497.27327,230.40169 C 500.68514,228.65604 503.62105,226.83102 506.08098,224.92662 L 514.65066,201.00295 L 522.38718,201.00295 L 515.12675,238.49527 C 511.39722,239.84421 507.23142,241.15347 502.62932,242.42304 C 498.10631,243.69263 493.30571,244.84318 488.2275,245.87472 C 483.14906,246.8269 477.91204,247.58072 472.51643,248.13616 C 467.12062,248.77095 461.76458,249.08835 456.44829,249.08835"
       id="text2383" />
    <path
       style="fill:none;fill-opacity:0.75000000000000000;fill-rule:evenodd;stroke:#00c800;stroke-width:54.6;stroke-linecap:round;stroke-linejoin:round;stroke-miterlimit:4;stroke-dasharray:none;stroke-opacity:1"
       d="M 106.55449,313.4689 C 176.37467,439.99777 149.67175,512.32522 180.8402,590.61176 C 326.11783,346.31664 651.80953,219.02885 653.71429,218.07647"
       id="path2410"
       sodipodi:nodetypes="ccc" />
    <g
       id="g3192"
       transform="matrix(2.0018002,0,0,2.0018002,323.73185,-1420.214)">
      <rect
         y="941.28741"
         x="1.2"
         height="109.87447"
         width="177.60002"
         id="rect2414"
         style="opacity:1;fill:#ffffff;fill-opacity:1;stroke:none;stroke-width:0.1;stroke-linejoin:miter;stroke-miterlimit:0;stroke-dasharray:none;stroke-dashoffset:0;stroke-opacity:1" />
      <rect
         y="941.28687"
         x="50.0625"
         height="109.875"
         width="30"
         id="rect2418"
         style="opacity:1;fill:#18447e;fill-opacity:1;stroke:none;stroke-width:0;stroke-linejoin:miter;stroke-miterlimit:0;stroke-dasharray:none;stroke-dashoffset:0;stroke-opacity:1" />
      <rect
         y="982.41559"
         x="0.0625"
         height="29.893196"
         width="179.87498"
         id="rect3190"
         style="opacity:1;fill:#18447e;fill-opacity:1;stroke:none;stroke-width:0;stroke-linejoin:miter;stroke-miterlimit:0;stroke-dasharray:none;stroke-dashoffset:0;stroke-opacity:1" />
    </g>
  </g>
</svg>
